# AST/ASF file generated using VICON BodyLanguage
# -----------------------------------------------
:version 1.10
:name VICON
:units
  mass 1.0
  length 0.45
  angle deg
:documentation
   .ast/.asf automatically generated from VICON data using
   VICON BodyBuilder and BodyLanguage model FoxedUp or BRILLIANT.MOD
:root
   order TX TY TZ RX RY RZ
   axis XYZ
   position 0 0 0  
   orientation 0 0 0 
:bonedata
  begin
     id 1 
     name lhipjoint
     direction 0.577973 -0.728611 0.367523 
     length 2.48544 
     axis 0 0 0  XYZ
  end
  begin
     id 2 
     name lfemur
     direction 0.34202 -0.939693 0  
     length 7.1921  
     axis 0 0 20  XYZ
    dof rx ry rz
    limits (-160.0 20.0)
           (-70.0 70.0)
           (-60.0 70.0)
  end
  begin
     id 3 
     name ltibia
     direction 0.34202 -0.939693 0   
     length 7.71059   
     axis 0 0 20   XYZ
    dof rx
    limits (-10.0 170.0)
  end
  begin
     id 4 
     name lfoot
     direction 0.089538 -0.246004 0.965124   
     length 2.19909   
     axis -90 7.62852e-016 20   XYZ
    dof rx rz
    limits (-45.0 90.0)
           (-70.0 20.0)
  end
  begin
     id 5 
     name ltoes
     direction 1.53544e-011 -4.21829e-011 1   
     length 1.10116   
     axis -90 7.62852e-016 20   XYZ
    dof rx
    limits (-90.0 20.0)
  end
  begin
     id 6 
     name rhipjoint
     direction -0.554414 -0.743062 0.374812   
     length 2.4371  
     axis 0 0 0  XYZ 
  end
  begin
     id 7 
     name rfemur
     direction -0.34202 -0.939693 0   
     length 7.47254   
     axis 0 0 -20   XYZ
    dof rx ry rz
    limits (-160.0 20.0)
           (-70.0 70.0)
           (-70.0 60.0)
  end
  begin
     id 8 
     name rtibia
     direction -0.34202 -0.939693 0   
     length 7.65855   
     axis 0 0 -20   XYZ
    dof rx
    limits (-10.0 170.0)
 end
 begin
     id 9 
     name rfoot
     direction -0.133779 -0.367555 0.92033   
     length 2.43006  
     axis -90 -7.62852e-016 -20   XYZ
    dof rx rz
    limits (-45.0 90.0)
           (-20.0 70.0)
  end
  begin
     id 10 
     name rtoes
     direction -1.53563e-011 -4.21889e-011 1   
     length 1.19625   
     axis -90 -7.62852e-016 -20   XYZ
    dof rx
    limits (-90.0 20.0)
  end
  begin
     id 11 
     name lowerback
     direction 0.0249066 0.998043 -0.0573585   
     length 2.08485   
     axis 0 0 0   XYZ
    dof rx ry rz
    limits (-20.0 45.0)
           (-30.0 30.0)
           (-30.0 30.0)
  end
  begin
     id 12 
     name upperback
     direction 0.0237884 0.999673 0.00943178   
     length 2.08515   
     axis 0 0 0   XYZ
    dof rx ry rz
    limits (-20.0 45.0)
           (-30.0 30.0)
           (-30.0 30.0)
  end
  begin
     id 13 
     name thorax
     direction 0.0106671 0.999301 0.0358174   
     length 2.09037   
     axis 0 0 0   XYZ
    dof rx ry rz
    limits (-20.0 45.0)
           (-30.0 30.0)
           (-30.0 30.0)
  end
  begin
     id 14 
     name lowerneck
     direction -0.0580016 0.987052 0.149546   
     length 1.84454   
     axis 0 0 0   XYZ
    dof rx ry rz
    limits (-20.0 45.0)
           (-30.0 30.0)
           (-30.0 30.0)
  end
  begin
     id 15 
     name upperneck
     direction 0.079456 0.981963 -0.171567   
     length 1.88141   
     axis 0 0 0   XYZ
    dof rx ry rz
    limits (-20.0 45.0)
           (-30.0 30.0)
           (-30.0 30.0)
  end
  begin
     id 16
     name head
     direction 0.0262167 0.9967 -0.0768276  
     length 1.89541  
     axis 0 0 0   XYZ
    dof rx ry rz
    limits (-20.0 45.0)
           (-30.0 30.0)
           (-30.0 30.0)
  end
  begin
     id 17 
     name lclavicle
     direction 0.946135 0.322134 -0.0325326  
     length 3.949  
     axis 0 0 0   XYZ
    dof ry rz
    limits (-20.0 10.0)
           (0.0 20.0)
  end
  begin
     id 18 
     name lhumerus
     direction 1 -4.48964e-011 1.94005e-028   
     length 5.10995   
     axis 180 -30 -90   XYZ
    dof rx ry rz
    limits (-60.0 90.0)
           (-90.0 90.0)
           (-90.0 90.0)
  end
  begin
     id 19
     name lradius
     direction 1 -4.48976e-011 2.87852e-027   
     length 3.21207   
     axis 180 -30 -90   XYZ
    dof rx
    limits (-10.0 170.0)
  end
  begin
     id 20
     name lwrist
     direction 1 -4.48963e-011 1.9975e-027   
     length 1.60604   
     axis 2.96054e-016 90 90   XYZ
    dof ry
    limits (-180.0 0.0)
 end
  begin
     id 21 
     name lhand
     direction 1 -4.48919e-011 4.00227e-027   
     length 0.63349   
     axis -2.5488e-015 90 90   XYZ
    dof rx rz
    limits (-90.0 90.0)
           (-45.0 45.0)
  end
  begin
     id 22 
     name lfingers
     direction 1 -4.49037e-011 7.9652e-027   
     length 0.510736   
     axis -5.0975e-015 90 90   XYZ
    dof rx
    limits (0.0 90.0)
  end
  begin
     id 23
     name lthumb
     direction 0.707107 -6.34922e-011 0.707107   
     length 0.733318   
     axis -90 45 -4.48553e-014   XYZ
    dof rx rz
    limits (-45.0 45.0)
           (-45.0 45.0)
  end
  begin
     id 24 
     name rclavicle
     direction -0.940085 0.328911 -0.0897654   
     length 3.93848  
     axis 0 0 0   XYZ 
    dof ry rz
    limits (-10.0 20.0)
           (-20.0 0.0)
  end
  begin
     id 25 
     name rhumerus
     direction -1 -4.48958e-011 3.02044e-027  
     length 5.25109   
     axis 180 30 90   XYZ
    dof rx ry rz
    limits (-90.0 60.0)
           (-90.0 90.0)
           (-90.0 90.0)
  end
  begin
     id 26 
     name rradius
     direction -1 -4.4897e-011 9.78352e-028   
     length 3.28364   
     axis 180 30 90   XYZ
    dof rx
    limits (-10.0 170.0)
  end
  begin
     id 27 
     name rwrist
     direction -1 -4.48943e-011 1.99918e-027   
     length 1.64182   
     axis 2.96054e-016 -90 -90   XYZ
    dof ry
    limits (-180.0 0.0)
  end
  begin
     id 28
     name rhand
     direction -1 -4.49024e-011 3.98478e-027   
     length 0.599745   
     axis -2.5488e-015 -90 -90   XYZ
    dof rx rz
    limits (-90.0 90.0)
           (-45.0 45.0)
  end
  begin
     id 29
     name rfingers
     direction -1 -4.48914e-011 8.00621e-027   
     length 0.48353   
     axis -5.0975e-015 -90 -90   XYZ
    dof rx
    limits (0.0 90.0)
  end
  begin
     id 30
     name rthumb
     direction -0.707107 -6.34992e-011 0.707107   
     length 0.694255   
     axis -90 -45 4.48553e-014   XYZ
    dof rx rz
    limits (-45.0 45.0)
           (-45.0 45.0)
  end
:hierarchy
  begin
    root lhipjoint rhipjoint lowerback
    lhipjoint lfemur
    lfemur ltibia
    ltibia lfoot
    lfoot ltoes
    rhipjoint rfemur
    rfemur rtibia
    rtibia rfoot
    rfoot rtoes
    lowerback upperback
    upperback thorax
    thorax lowerneck lclavicle rclavicle
    lowerneck upperneck
    upperneck head
    lclavicle lhumerus
    lhumerus lradius
    lradius lwrist
    lwrist lhand lthumb
    lhand lfingers
    rclavicle rhumerus
    rhumerus rradius
    rradius rwrist
    rwrist rhand rthumb
    rhand rfingers
  end

#!OML:ASF E:\CV Data\Top Level 1\Subject 1\Session 1\player.ASF
:FULLY-SPECIFIED
:DEGREES
216
root 5.21886 15.4059 16.3309 -1.81799 -3.74628 -5.50725
lowerback 7.3217 0.769863 2.64103
upperback 0.245359 1.36804 3.07055
thorax -3.86896 0.657142 1.55226
lowerneck -21.0817 -7.44467 -10.2466
upperneck 17.9196 -9.31805 9.67483
head 10.145 -3.94105 3.66752
rclavicle -6.24308e-015 1.98785e-015
rhumerus 29.5349 -1.21444 -66.3255
rradius 77.4291
rwrist 12.9894
rhand 10.6216 -7.6051
rfingers 7.12502
rthumb 35.7157 -33.991
lclavicle -6.24308e-015 1.98785e-015
lhumerus 19.3713 3.68332 74.694
lradius 85.4071
lwrist -28.5235
lhand 9.0679 9.97702
lfingers 7.12502
lthumb 34.2417 36.7068
rfemur -23.3039 -8.2112 20.1654
rtibia 65.8258
rfoot -36.0586 -5.79979
rtoes -12.721
lfemur -23.0283 10.9068 -8.5376
ltibia 63.9016
lfoot -32.7674 -0.261591
ltoes -13.8694
217
root 5.2193 15.4066 16.3331 -1.81874 -3.74677 -5.51655
lowerback 7.31034 0.769332 2.64204
upperback 0.243127 1.367 3.07127
thorax -3.86489 0.656643 1.55268
lowerneck -21.0614 -7.44567 -10.255
upperneck 17.924 -9.31937 9.67545
head 10.1436 -3.94278 3.66933
rclavicle -1.37286e-015 5.96354e-015
rhumerus 29.5231 -1.2045 -66.3336
rradius 77.4296
rwrist 12.9734
rhand 10.6137 -7.60406
rfingers 7.12502
rthumb 35.7082 -33.9917
lclavicle -1.37286e-015 5.96354e-015
lhumerus 19.3782 3.69034 74.6901
lradius 85.3969
lwrist -28.4492
lhand 9.04246 9.98299
lfingers 7.12502
lthumb 34.2176 36.7182
rfemur -23.285 -8.21016 20.1712
rtibia 65.8107
rfoot -36.0587 -5.79725
rtoes -12.7291
lfemur -23.0129 10.8969 -8.5304
ltibia 63.894
lfoot -32.7692 -0.245621
ltoes -13.8907
218
root 5.21979 15.4071 16.3354 -1.81961 -3.74785 -5.52394
lowerback 7.3013 0.768877 2.64114
upperback 0.239585 1.36605 3.0714
thorax -3.86351 0.656195 1.55351
lowerneck -21.0453 -7.44482 -10.2618
upperneck 17.9293 -9.31861 9.67734
head 10.1429 -3.94317 3.6716
rclavicle -2.27049e-014 3.97569e-015
rhumerus 29.5084 -1.18969 -66.3388
rradius 77.4312
rwrist 12.9668
rhand 10.5945 -7.60289
rfingers 7.12502
rthumb 35.69 -33.995
lclavicle -2.27049e-014 3.97569e-015
lhumerus 19.3821 3.69928 74.6858
lradius 85.3864
lwrist -28.3605
lhand 9.0154 9.98886
lfingers 7.12502
lthumb 34.1919 36.7298
rfemur -23.266 -8.20917 20.1745
rtibia 65.7958
rfoot -36.0593 -5.79721
rtoes -12.7454
lfemur -22.9965 10.8882 -8.52581
ltibia 63.8858
lfoot -32.7717 -0.226589
ltoes -13.9145
219
root 5.22032 15.4076 16.3377 -1.81945 -3.74932 -5.52926
lowerback 7.29315 0.768876 2.6379
upperback 0.235395 1.36556 3.07117
thorax -3.86334 0.656008 1.55523
lowerneck -21.0374 -7.44305 -10.2671
upperneck 17.9389 -9.31661 9.67934
head 10.1451 -3.94257 3.67378
rclavicle 5.21189e-015 -2.06736e-014
rhumerus 29.4929 -1.17257 -66.3414
rradius 77.4357
rwrist 12.9727
rhand 10.5713 -7.60371
rfingers 7.12502
rthumb 35.668 -34.0011
lclavicle 5.21189e-015 -2.06736e-014
lhumerus 19.3864 3.70903 74.681
lradius 85.3743
lwrist -28.2571
lhand 8.98887 9.9972
lfingers 7.12502
lthumb 34.1667 36.7438
rfemur -23.249 -8.20733 20.176
rtibia 65.7824
rfoot -36.0608 -5.79849
rtoes -12.7661
lfemur -22.9812 10.8802 -8.52376
ltibia 63.8779
lfoot -32.7747 -0.209074
ltoes -13.9228
220
root 5.22089 15.408 16.34 -1.81888 -3.75314 -5.53429
lowerback 7.28486 0.76952 2.63434
upperback 0.230509 1.36594 3.07122
thorax -3.86385 0.656255 1.55732
lowerneck -21.0346 -7.43989 -10.2713
upperneck 17.9521 -9.31284 9.68135
head 10.1492 -3.94088 3.67601
rclavicle 5.34234e-016 2.90226e-014
rhumerus 29.4743 -1.15137 -66.3403
rradius 77.4412
rwrist 12.9869
rhand 10.542 -7.60357
rfingers 7.12502
rthumb 35.6402 -34.0077
lclavicle 5.34234e-016 2.90226e-014
lhumerus 19.387 3.71944 74.6742
lradius 85.3626
lwrist -28.1445
lhand 8.96524 10.0074
lfingers 7.12502
lthumb 34.1443 36.759
rfemur -23.2339 -8.20279 20.1775
rtibia 65.7706
rfoot -36.0616 -5.80099
rtoes -12.7826
lfemur -22.9662 10.8752 -8.52183
ltibia 63.8709
lfoot -32.7784 -0.19188
ltoes -13.9304
221
root 5.22144 15.4083 16.3421 -1.81717 -3.75777 -5.53841
lowerback 7.27635 0.770526 2.62937
upperback 0.225889 1.36666 3.07108
thorax -3.86399 0.656695 1.55997
lowerneck -21.0386 -7.4356 -10.2763
upperneck 17.9691 -9.30788 9.68745
head 10.1561 -3.938 3.67997
rclavicle -3.52843e-015 4.33351e-014
rhumerus 29.4568 -1.1304 -66.3393
rradius 77.4478
rwrist 13.0107
rhand 10.5152 -7.60176
rfingers 7.12502
rthumb 35.6148 -34.012
lclavicle -3.52843e-015 4.33351e-014
lhumerus 19.3879 3.73033 74.6651
lradius 85.3483
lwrist -28.0306
lhand 8.94484 10.0164
lfingers 7.12502
lthumb 34.1249 36.7724
rfemur -23.223 -8.1977 20.1792
rtibia 65.7612
rfoot -36.0611 -5.80614
rtoes -12.7999
lfemur -22.9539 10.8723 -8.52052
ltibia 63.8659
lfoot -32.7826 -0.177328
ltoes -13.934
222
root 5.22201 15.4086 16.3442 -1.81467 -3.76375 -5.541
lowerback 7.26589 0.772046 2.62294
upperback 0.221908 1.36782 3.07074
thorax -3.8624 0.657392 1.56322
lowerneck -21.0476 -7.4306 -10.2793
upperneck 17.988 -9.30195 9.69256
head 10.1642 -3.93447 3.68335
rclavicle 4.79568e-015 -1.86858e-014
rhumerus 29.4395 -1.11087 -66.3393
rradius 77.4576
rwrist 13.0357
rhand 10.5006 -7.6023
rfingers 7.12502
rthumb 35.6009 -34.0159
lclavicle 4.79568e-015 -1.86858e-014
lhumerus 19.3887 3.74263 74.6538
lradius 85.334
lwrist -27.9282
lhand 8.93604 10.0224
lfingers 7.12502
lthumb 34.1165 36.7802
rfemur -23.2148 -8.19129 20.1799
rtibia 65.7542
rfoot -36.0604 -5.81124
rtoes -12.8122
lfemur -22.9437 10.8716 -8.52055
ltibia 63.8627
lfoot -32.7866 -0.165681
ltoes -13.9326
223
root 5.22262 15.4086 16.3462 -1.8125 -3.77092 -5.54274
lowerback 7.25446 0.774067 2.61666
upperback 0.220056 1.36949 3.06978
thorax -3.85804 0.65836 1.56569
lowerneck -21.0621 -7.42451 -10.2791
upperneck 18.0066 -9.29478 9.69707
head 10.173 -3.93004 3.68609
rclavicle 1.01132e-014 -7.55382e-015
rhumerus 29.4241 -1.09467 -66.3396
rradius 77.4711
rwrist 13.055
rhand 10.4955 -7.60574
rfingers 7.12502
rthumb 35.5962 -34.0205
lclavicle 1.01132e-014 -7.55382e-015
lhumerus 19.391 3.75598 74.6405
lradius 85.3192
lwrist -27.8445
lhand 8.93326 10.0268
lfingers 7.12502
lthumb 34.1139 36.7852
rfemur -23.2088 -8.18475 20.1799
rtibia 65.7499
rfoot -36.0596 -5.81877
rtoes -12.8303
lfemur -22.9346 10.8732 -8.5209
ltibia 63.8617
lfoot -32.791 -0.157457
ltoes -13.9303
224
root 5.22325 15.4086 16.348 -1.80933 -3.779 -5.54324
lowerback 7.24237 0.775928 2.60976
upperback 0.218435 1.37082 3.06798
thorax -3.85305 0.659168 1.5677
lowerneck -21.0738 -7.41751 -10.2778
upperneck 18.0209 -9.28695 9.70302
head 10.1796 -3.9252 3.68929
rclavicle -1.36602e-014 -2.38542e-015
rhumerus 29.4094 -1.07956 -66.3424
rradius 77.4872
rwrist 13.0638
rhand 10.4962 -7.61026
rfingers 7.12502
rthumb 35.5968 -34.0248
lclavicle -1.36602e-014 -2.38542e-015
lhumerus 19.3907 3.77199 74.6246
lradius 85.3061
lwrist -27.7882
lhand 8.94023 10.0274
lfingers 7.12502
lthumb 34.1205 36.7843
rfemur -23.2058 -8.17728 20.1789
rtibia 65.7482
rfoot -36.0593 -5.82573
rtoes -12.848
lfemur -22.928 10.8763 -8.5225
ltibia 63.8626
lfoot -32.7956 -0.15153
ltoes -13.9262
225
root 5.22391 15.4084 16.3497 -1.80716 -3.78843 -5.54223
lowerback 7.23021 0.778354 2.60184
upperback 0.218934 1.3727 3.06565
thorax -3.84584 0.660283 1.56967
lowerneck -21.0897 -7.40992 -10.2743
upperneck 18.0333 -9.27833 9.70867
head 10.1861 -3.91976 3.69206
rclavicle -1.6027e-015 2.90226e-014
rhumerus 29.3963 -1.06728 -66.3445
rradius 77.5074
rwrist 13.0617
rhand 10.5018 -7.61762
rfingers 7.12502
rthumb 35.6022 -34.0309
lclavicle -1.6027e-015 2.90226e-014
lhumerus 19.3917 3.78994 74.6077
lradius 85.2935
lwrist -27.7591
lhand 8.94998 10.0273
lfingers 7.12502
lthumb 34.1298 36.7822
rfemur -23.2034 -8.16818 20.1759
rtibia 65.7492
rfoot -36.061 -5.83132
rtoes -12.8662
lfemur -22.9218 10.8821 -8.52469
ltibia 63.8656
lfoot -32.8015 -0.151429
ltoes -13.9121
226
root 5.22461 15.4079 16.3515 -1.80653 -3.80047 -5.54098
lowerback 7.21969 0.781035 2.59393
upperback 0.219813 1.37498 3.06323
thorax -3.83915 0.661592 1.57148
lowerneck -21.102 -7.40134 -10.2722
upperneck 18.0405 -9.26864 9.71769
head 10.1903 -3.9137 3.69648
rclavicle 4.7522e-015 -8.74653e-015
rhumerus 29.3823 -1.05389 -66.346
rradius 77.5298
rwrist 13.0503
rhand 10.5049 -7.62451
rfingers 7.12502
rthumb 35.605 -34.0371
lclavicle 4.7522e-015 -8.74653e-015
lhumerus 19.3874 3.81002 74.5889
lradius 85.2824
lwrist -27.7497
lhand 8.95461 10.0257
lfingers 7.12502
lthumb 34.1342 36.7796
rfemur -23.2 -8.15623 20.1721
rtibia 65.7519
rfoot -36.0658 -5.83403
rtoes -12.8753
lfemur -22.9137 10.8915 -8.52625
ltibia 63.87
lfoot -32.809 -0.151137
ltoes -13.9034
227
root 5.22539 15.4073 16.3532 -1.80746 -3.81295 -5.53933
lowerback 7.21004 0.783935 2.58638
upperback 0.2227 1.37753 3.06047
thorax -3.83086 0.663036 1.57271
lowerneck -21.1197 -7.39346 -10.2665
upperneck 18.0471 -9.25969 9.72373
head 10.1949 -3.9079 3.699
rclavicle -1.62134e-015 -5.1684e-015
rhumerus 29.3717 -1.04261 -66.3455
rradius 77.5523
rwrist 13.0372
rhand 10.5078 -7.63115
rfingers 7.12502
rthumb 35.6078 -34.0431
lclavicle -1.62134e-015 -5.1684e-015
lhumerus 19.3846 3.83151 74.5699
lradius 85.2723
lwrist -27.7524
lhand 8.95974 10.0271
lfingers 7.12502
lthumb 34.139 36.7799
rfemur -23.1946 -8.14316 20.1667
rtibia 65.7557
rfoot -36.0747 -5.83357
rtoes -12.8763
lfemur -22.9043 10.9015 -8.52793
ltibia 63.8756
lfoot -32.8181 -0.151649
ltoes -13.8933
228
root 5.22626 15.4067 16.355 -1.80983 -3.82658 -5.53821
lowerback 7.20273 0.786888 2.57959
upperback 0.225344 1.38035 3.05826
thorax -3.82413 0.664595 1.57403
lowerneck -21.1356 -7.38517 -10.2604
upperneck 18.0513 -9.25025 9.72961
head 10.1982 -3.90195 3.70151
rclavicle 1.84186e-014 3.33958e-014
rhumerus 29.3604 -1.02992 -66.3416
rradius 77.5756
rwrist 13.0246
rhand 10.5121 -7.63826
rfingers 7.12502
rthumb 35.6119 -34.0492
lclavicle 1.84186e-014 3.33958e-014
lhumerus 19.3778 3.8547 74.5516
lradius 85.2641
lwrist -27.7611
lhand 8.95916 10.0299
lfingers 7.12502
lthumb 34.1385 36.7828
rfemur -23.1872 -8.12901 20.1611
rtibia 65.7595
rfoot -36.0846 -5.83222
rtoes -12.8743
lfemur -22.8927 10.913 -8.52862
ltibia 63.8814
lfoot -32.8282 -0.151487
ltoes -13.888
229
root 5.22722 15.406 16.3567 -1.81228 -3.83989 -5.53871
lowerback 7.19728 0.789779 2.57418
upperback 0.228329 1.38331 3.05667
thorax -3.81808 0.666195 1.57518
lowerneck -21.1475 -7.37733 -10.2559
upperneck 18.0498 -9.24169 9.73917
head 10.1993 -3.89627 3.70546
rclavicle -1.32937e-014 9.14409e-015
rhumerus 29.3516 -1.01866 -66.3365
rradius 77.5964
rwrist 13.0198
rhand 10.5135 -7.63923
rfingers 7.12502
rthumb 35.6132 -34.0498
lclavicle -1.32937e-014 9.14409e-015
lhumerus 19.371 3.87891 74.5348
lradius 85.2567
lwrist -27.7667
lhand 8.95603 10.0322
lfingers 7.12502
lthumb 34.1355 36.7858
rfemur -23.1798 -8.11527 20.1572
rtibia 65.763
rfoot -36.0938 -5.83145
rtoes -12.8731
lfemur -22.8817 10.9245 -8.52771
ltibia 63.8875
lfoot -32.839 -0.150715
ltoes -13.8884
